<svg  viewBox="0 0 20 20" xmlns="http://www.w3.org/2000/svg">
<path fill-rule="evenodd" clip-rule="evenodd" d="M10.0488 0C4.80483 0 0.548828 4.49 0.548828 10C0.548828 15.52 4.80483 20 10.0488 20C15.2833 20 19.5488 15.52 19.5488 10C19.5488 4.49 15.2833 0 10.0488 0ZM6.24447 7.4261C6.52947 7.1361 6.97597 7.1361 7.25147 7.4361L10.0445 10.3861L12.8375 7.4361C13.113 7.1361 13.569 7.1361 13.8445 7.4261C14.1295 7.7261 14.1295 8.19611 13.8445 8.4861L10.548 11.9761C10.415 12.1161 10.2345 12.1961 10.0445 12.1961C9.85447 12.1961 9.67397 12.1161 9.54097 11.9761L6.24447 8.4861C6.10197 8.3461 6.03547 8.15611 6.03547 7.9661C6.03547 7.7661 6.10197 7.57611 6.24447 7.4261Z"/>
</svg>
