<svg width="22" height="11" viewBox="0 0 22 11" xmlns="http://www.w3.org/2000/svg">
<path d="M21.6316 4.68439L16.8891 0.335961C16.399 -0.112484 15.6102 -0.112484 15.1217 0.338951C14.6347 0.790386 14.6364 1.51836 15.1249 1.96681L17.7217 4.34806H1.24972C0.559941 4.34806 0 4.86377 0 5.50056C0 6.13586 0.559941 6.65008 1.24972 6.65008H17.7217L15.1249 9.03282C14.6364 9.48126 14.6347 10.2092 15.1217 10.6607C15.3667 10.8864 15.6865 11 16.0078 11C16.3259 11 16.6457 10.8864 16.8891 10.6637L21.6316 6.31524C21.8669 6.09849 22 5.8055 22 5.50056C22 5.19412 21.8669 4.90114 21.6316 4.68439Z"/>
</svg>
