<svg  viewBox="0 0 20 20"  xmlns="http://www.w3.org/2000/svg">
<path fill-rule="evenodd" clip-rule="evenodd" d="M10.0488 0C4.80483 0 0.548828 4.49 0.548828 10C0.548828 15.52 4.80483 20 10.0488 20C15.2833 20 19.5488 15.52 19.5488 10C19.5488 4.49 15.2833 0 10.0488 0ZM13.8489 11.98C13.5639 12.27 13.1174 12.27 12.8419 11.97L10.0489 9.02002L7.25587 11.97C6.98037 12.27 6.52437 12.27 6.24887 11.98C5.96387 11.68 5.96387 11.21 6.24887 10.92L9.54537 7.43002C9.67837 7.29002 9.85887 7.21002 10.0489 7.21002C10.2389 7.21002 10.4194 7.29002 10.5524 7.43002L13.8489 10.92C13.9914 11.06 14.0579 11.25 14.0579 11.44C14.0579 11.64 13.9914 11.83 13.8489 11.98Z"/>
</svg>
