<svg  viewBox="0 0 20 20"  xmlns="http://www.w3.org/2000/svg">

<path fill-rule="evenodd" clip-rule="evenodd" d="M0.0565186 7.50385C0 8.32227 0 9.34857 0 10.7198C0 13.4443 0 14.8057 0.445328 15.8807C1.03882 17.313 2.177 18.4513 3.6095 19.0449C4.68436 19.4902 6.04572 19.4902 8.77037 19.4902H10.7194C11.5954 19.4902 12.3302 19.4902 12.9607 19.4753V19.4648C12.9607 18.5781 12.9607 17.8772 12.9996 17.3111C13.0386 16.7323 13.1205 16.243 13.3095 15.7878C13.7744 14.6663 14.666 13.7747 15.7877 13.3099C16.2428 13.1207 16.7319 13.0391 17.3108 12.9999C17.8769 12.9609 18.5776 12.9609 19.4644 12.9609H19.4751C19.4897 12.3306 19.4897 11.5958 19.4897 10.7198C19.4897 9.34857 19.4897 8.32227 19.4332 7.50385H0.0565186ZM0.253403 6.13959H19.2363C19.1837 5.9339 19.1204 5.742 19.0444 5.55884C18.4509 4.12634 17.3127 2.98798 15.8802 2.39447C14.8054 1.94922 13.444 1.94922 10.7194 1.94922H8.77037C6.04572 1.94922 4.68436 1.94922 3.6095 2.39447C2.177 2.98798 1.03882 4.12634 0.445328 5.55884C0.369339 5.742 0.306 5.9339 0.253403 6.13959ZM15.8802 19.0449C15.4359 19.2288 14.9427 19.3371 14.325 19.4005C14.325 18.5292 14.3269 17.9017 14.36 17.4036C14.3951 16.895 14.4613 16.5716 14.5695 16.3102C14.896 15.5229 15.5226 14.8963 16.31 14.5699C16.5711 14.462 16.8946 14.3954 17.4034 14.3604C17.9013 14.3273 18.5289 14.3253 19.4 14.3253C19.3367 14.943 19.2286 15.4363 19.0444 15.8807C18.4509 17.313 17.3127 18.4513 15.8802 19.0449ZM3.89793 10.0375C3.52083 10.0375 3.21581 10.3426 3.21581 10.7198C3.21581 11.0967 3.52083 11.4019 3.89793 11.4019H4.38519C4.76233 11.4019 5.06732 11.0967 5.06732 10.7198C5.06732 10.3426 4.76233 10.0375 4.38519 10.0375H3.89793ZM8.57545 10.7198C8.57545 10.3426 8.88051 10.0375 9.25761 10.0375H9.74486C10.122 10.0375 10.427 10.3426 10.427 10.7198C10.427 11.0967 10.122 11.4019 9.74486 11.4019H9.25761C8.88051 11.4019 8.57545 11.0967 8.57545 10.7198ZM14.6173 10.0375C14.2402 10.0375 13.9352 10.3426 13.9352 10.7198C13.9352 11.0967 14.2402 11.4019 14.6173 11.4019H15.1045C15.4817 11.4019 15.7867 11.0967 15.7867 10.7198C15.7867 10.3426 15.4817 10.0375 15.1045 10.0375H14.6173ZM3.21581 15.5922C3.21581 15.215 3.52083 14.91 3.89793 14.91H4.38519C4.76233 14.91 5.06732 15.215 5.06732 15.5922C5.06732 15.9692 4.76233 16.2742 4.38519 16.2742H3.89793C3.52083 16.2742 3.21581 15.9692 3.21581 15.5922ZM9.25761 14.91C8.88051 14.91 8.57545 15.215 8.57545 15.5922C8.57545 15.9692 8.88051 16.2742 9.25761 16.2742H9.74486C10.122 16.2742 10.427 15.9692 10.427 15.5922C10.427 15.215 10.122 14.91 9.74486 14.91H9.25761Z" />
<path fill-rule="evenodd" clip-rule="evenodd" d="M14.3252 0C14.7023 0 15.0073 0.305054 15.0073 0.68219V3.21606C15.0073 3.59296 14.7023 3.89801 14.3252 3.89801C13.9481 3.89801 13.6431 3.59296 13.6431 3.21606V0.68219C13.6431 0.305054 13.9481 0 14.3252 0Z" />
<path fill-rule="evenodd" clip-rule="evenodd" d="M5.55565 0C5.93279 0 6.23778 0.305054 6.23778 0.68219V3.21606C6.23778 3.59296 5.93279 3.89801 5.55565 3.89801C5.1785 3.89801 4.87354 3.59296 4.87354 3.21606V0.68219C4.87354 0.305054 5.1785 0 5.55565 0Z" />

</svg>
