<svg  viewBox="0 0 20 19"  xmlns="http://www.w3.org/2000/svg">
<path fill-rule="evenodd" clip-rule="evenodd" d="M15.44 4.22078C15.48 4.2907 15.55 4.34065 15.64 4.34065C18.04 4.34065 20 6.29847 20 8.69581V14.6292C20 17.0266 18.04 18.9844 15.64 18.9844H4.36C1.95 18.9844 0 17.0266 0 14.6292V8.69581C0 6.29847 1.95 4.34065 4.36 4.34065C4.44 4.34065 4.52 4.30069 4.55 4.22078L4.61 4.10091C4.64448 4.02834 4.67987 3.95381 4.71579 3.87814C4.97161 3.3393 5.25463 2.74317 5.43 2.39281C5.89 1.49381 6.67 0.994364 7.64 0.984375H12.35C13.32 0.994364 14.11 1.49381 14.57 2.39281C14.7275 2.70745 14.9674 3.21427 15.1987 3.70276C15.2464 3.80358 15.2938 3.90362 15.34 4.00102L15.44 4.22078ZM14.71 8.05652C14.71 8.55596 15.11 8.95552 15.61 8.95552C16.11 8.95552 16.52 8.55596 16.52 8.05652C16.52 7.55707 16.11 7.14753 15.61 7.14753C15.11 7.14753 14.71 7.55707 14.71 8.05652ZM8.27 9.6048C8.74 9.13532 9.35 8.8856 10 8.8856C10.65 8.8856 11.26 9.13532 11.72 9.59481C12.18 10.0543 12.43 10.6636 12.43 11.3129C12.42 12.6514 11.34 13.7402 10 13.7402C9.35 13.7402 8.74 13.4905 8.28 13.031C7.82 12.5715 7.57 11.9622 7.57 11.3129V11.3029C7.56 10.6736 7.81 10.0643 8.27 9.6048ZM12.77 14.0898C12.06 14.799 11.08 15.2385 10 15.2385C8.95 15.2385 7.97 14.829 7.22 14.0898C6.48 13.3406 6.07 12.3617 6.07 11.3129C6.06 10.2741 6.47 9.29514 7.21 8.54597C7.96 7.79681 8.95 7.38726 10 7.38726C11.05 7.38726 12.04 7.79681 12.78 8.53598C13.52 9.28515 13.93 10.2741 13.93 11.3129C13.92 12.4017 13.48 13.3806 12.77 14.0898Z"/>
</svg>
