<svg viewBox="0 0 17 20"  xmlns="http://www.w3.org/2000/svg">
<path fill-rule="evenodd" clip-rule="evenodd" d="M5.42568 14.3884H10.8118C11.2178 14.3884 11.5544 14.0484 11.5544 13.6384C11.5544 13.2284 11.2178 12.8984 10.8118 12.8984H5.42568C5.01974 12.8984 4.68311 13.2284 4.68311 13.6384C4.68311 14.0484 5.01974 14.3884 5.42568 14.3884ZM8.77221 7.89844H5.42568C5.01974 7.89844 4.68311 8.23844 4.68311 8.64844C4.68311 9.05844 5.01974 9.38844 5.42568 9.38844H8.77221C9.17815 9.38844 9.51479 9.05844 9.51479 8.64844C9.51479 8.23844 9.17815 7.89844 8.77221 7.89844ZM15.8381 7.02561C16.0708 7.02292 16.3242 7.02 16.5545 7.02C16.802 7.02 17 7.22 17 7.47V15.51C17 17.99 15.0099 20 12.5545 20H4.67327C2.09901 20 0 17.89 0 15.29V4.51C0 2.03 2 0 4.46535 0H9.75247C10.0099 0 10.2079 0.21 10.2079 0.46V3.68C10.2079 5.51 11.703 7.01 13.5149 7.02C13.9381 7.02 14.3112 7.02316 14.6377 7.02593C14.8917 7.02809 15.1175 7.03 15.3168 7.03C15.4578 7.03 15.6405 7.02789 15.8381 7.02561ZM16.1113 5.56723C15.2974 5.57023 14.338 5.56723 13.6479 5.56023C12.5529 5.56023 11.6509 4.64923 11.6509 3.54323V0.907229C11.6509 0.476229 12.1687 0.262229 12.4647 0.573229C13.0007 1.13608 13.7373 1.90981 14.4704 2.67996C15.2013 3.44779 15.9289 4.21206 16.4509 4.76023C16.74 5.06323 16.5281 5.56623 16.1113 5.56723Z" />
</svg>
