<svg width="19" height="20" viewBox="0 0 19 20"  xmlns="http://www.w3.org/2000/svg">

    <path d="M16.91 8.01781C16.72 7.16281 16.34 6.30781 15.865 5.54781L16.815 3.55281L15.485 2.22281L13.49 3.17281C12.73 2.69781 11.97 2.41281 11.115 2.22281L10.45 0.132812H8.55L7.79 2.22281C6.935 2.41281 6.175 2.79281 5.415 3.26781L3.42 2.31781L2.09 3.55281L3.04 5.54781C2.565 6.30781 2.28 7.06781 2.09 7.92281L0 8.68281V10.5828L2.09 11.3428C2.28 12.1978 2.66 13.0528 3.04 13.7178L2.09 15.7128L3.42 17.0428L5.415 16.0928C6.175 16.5678 6.935 16.9478 7.79 17.1378L8.55 19.1328H10.45L11.21 17.0428C11.495 16.9478 11.875 16.8528 12.16 16.7578L10.64 15.2378C7.03 15.9028 3.8 13.2428 3.8 9.63281C3.8 6.49781 6.365 3.93281 9.5 3.93281C13.015 3.93281 15.675 7.06781 15.105 10.3928L16.72 12.0078C16.815 11.7228 16.91 11.5328 16.91 11.2478L19 10.5828V8.68281L16.91 8.01781Z"/>
    <path d="M18.6201 16.6605L13.0151 11.0556C14.3451 8.11053 11.5901 4.97553 8.55011 5.83054L10.2602 7.54055C11.0201 8.30055 11.0201 9.53553 10.2602 10.2005C9.59512 10.9605 8.26513 10.9605 7.60016 10.2005L5.89013 8.58553C5.03515 11.2456 7.79013 14.2855 10.9251 13.0505L16.5301 18.6555C17.1002 19.2255 17.9551 19.2255 18.5251 18.6555C19.0951 18.1806 19.0951 17.2306 18.6201 16.6605Z" />

</svg>
