<svg  viewBox="0 0 21 20"  xmlns="http://www.w3.org/2000/svg">
<path fill-rule="evenodd" clip-rule="evenodd" d="M2.29004 4.75C2.29004 2.13 4.42004 0 7.04004 0C9.66004 0 11.79 2.13 11.79 4.75C11.78 7.32 9.77004 9.4 7.21004 9.49H7.19004H7.14004C7.08004 9.48 7.00004 9.48 6.92004 9.49C4.30004 9.4 2.29004 7.32 2.29004 4.75ZM1.97 12.1499C4.78 10.2899 9.33 10.2899 12.12 12.1499C13.38 12.9899 14.07 14.1299 14.08 15.3599C14.08 16.5999 13.38 17.7399 12.12 18.5899C10.72 19.5299 8.88 19.9999 7.04 19.9999C5.2 19.9999 3.36 19.5299 1.96 18.5899C0.7 17.7499 0 16.6099 0 15.3799C0 14.1499 0.7 12.9999 1.97 12.1499ZM18.0299 5.3401C18.1899 7.2801 16.8099 8.9801 14.8999 9.2101H14.8799H14.8499H14.8499C14.7899 9.2101 14.7299 9.2101 14.6799 9.2301C13.7099 9.2801 12.8199 8.9701 12.1499 8.4001C13.1799 7.4801 13.7699 6.1001 13.6499 4.6001C13.5799 3.7901 13.2999 3.0501 12.8799 2.4201C13.2599 2.2301 13.6999 2.1101 14.1499 2.0701C16.1099 1.9001 17.8599 3.3601 18.0299 5.3401ZM18.2903 16.9704C19.3303 16.4004 19.9503 15.5604 20.0303 14.5904C20.1203 13.6304 19.6503 12.7004 18.7303 11.9604C17.0203 10.5804 14.2403 10.1504 12.0303 10.7904C12.8803 11.1004 13.6603 11.5204 14.3303 12.0504C15.5103 13.0004 16.1003 14.1904 16.0003 15.4304C15.9203 16.2904 15.5003 17.1004 14.7803 17.7504C16.0303 17.7804 17.2903 17.5204 18.2903 16.9704Z" />
</svg>
